<?xml version="1.0" encoding="UTF-8"?><svg xmlns="http://www.w3.org/2000/svg" xmlns:xlink="http://www.w3.org/1999/xlink" width="500" zoomAndPan="magnify" viewBox="0 0 375 374.999991" height="500" preserveAspectRatio="xMidYMid meet" version="1.2" baseProfile="tiny-ps"><title>techまとめ</title><defs><g></g></defs><rect x="-37.5" width="450" fill="#ffffff" y="-37.499999" height="449.999989" fill-opacity="1"></rect><rect x="-37.5" width="450" fill="#ffffff" y="-37.499999" height="449.999989" fill-opacity="1"></rect><rect x="-37.5" width="450" fill="#ffffff" y="-37.499999" height="449.999989" fill-opacity="1"></rect><g fill="#49ab7b" fill-opacity="1"><g transform="translate(14.893012, 183.478711)"><g><path d="M 48.550781 9.503906 C 50.863281 13.230469 54.203125 15.15625 58.441406 15.15625 C 59.339844 13.742188 61.136719 12.972656 64.089844 12.972656 L 65.503906 11.558594 C 65.503906 9.632812 65.761719 8.476562 66.273438 7.964844 C 66.789062 7.964844 67.429688 7.578125 68.074219 6.9375 C 68.972656 6.292969 69.742188 5.90625 70.382812 5.90625 C 70.898438 5.394531 71.410156 4.496094 71.925781 3.210938 C 72.566406 1.542969 73.082031 0.640625 73.210938 0.257812 C 73.46875 -0.386719 73.339844 -1.796875 72.953125 -3.980469 C 72.566406 -5.90625 72.695312 -7.320312 73.210938 -8.21875 C 72.183594 -8.734375 71.410156 -9.890625 70.898438 -11.558594 C 70.382812 -13.230469 70 -14.257812 69.742188 -14.640625 C 70.382812 -16.824219 70.640625 -19.78125 70.769531 -23.375 C 70.898438 -27.101562 71.027344 -29.539062 71.15625 -30.824219 C 70.382812 -31.851562 70.128906 -33.265625 70.511719 -34.933594 C 70.898438 -36.863281 70.898438 -38.019531 70.382812 -38.53125 C 70.769531 -40.585938 71.027344 -43.539062 71.410156 -47.265625 C 71.796875 -51.246094 71.925781 -54.714844 72.054688 -57.414062 C 72.054688 -58.183594 72.183594 -61.136719 72.566406 -66.144531 C 72.953125 -66.402344 73.46875 -67.046875 73.980469 -67.945312 C 74.625 -68.972656 75.007812 -69.484375 75.394531 -69.613281 C 75.394531 -69.871094 75.265625 -70.128906 75.007812 -70.382812 C 74.878906 -70.511719 74.75 -70.769531 74.75 -71.15625 C 75.007812 -71.15625 75.265625 -71.285156 75.394531 -71.410156 C 75.652344 -71.667969 75.90625 -71.796875 76.035156 -71.796875 C 76.035156 -72.824219 77.449219 -73.980469 80.402344 -75.265625 C 84.640625 -75.265625 87.851562 -75.523438 90.164062 -76.035156 C 90.933594 -75.523438 93.117188 -75.265625 96.585938 -75.265625 C 102.75 -77.320312 105.832031 -80.144531 105.832031 -83.742188 C 106.734375 -84.128906 107.117188 -84.769531 107.117188 -85.925781 C 108.789062 -86.695312 109.945312 -87.851562 110.714844 -89.394531 L 110.714844 -90.933594 C 110.328125 -91.578125 109.558594 -92.863281 108.402344 -94.917969 C 107.375 -96.84375 106.21875 -98.382812 105.0625 -99.410156 C 104.292969 -99.796875 102.109375 -100.695312 98.382812 -102.238281 C 94.917969 -103.523438 92.605469 -104.421875 91.707031 -105.0625 C 80.015625 -106.347656 67.558594 -105.832031 54.203125 -103.523438 C 49.960938 -102.109375 44.3125 -100.4375 37.246094 -98.640625 C 33.523438 -97.226562 28.769531 -94.789062 23.117188 -91.449219 C 16.695312 -87.851562 12.972656 -85.796875 11.816406 -85.285156 C 11.175781 -84.640625 10.402344 -84 9.632812 -83.355469 C 8.605469 -82.585938 7.707031 -81.816406 6.9375 -80.917969 C 6.421875 -80.144531 6.164062 -79.246094 6.164062 -78.089844 C 5.78125 -78.089844 5.523438 -77.960938 5.394531 -77.835938 C 5.265625 -77.578125 5.007812 -77.449219 4.753906 -77.449219 C 4.367188 -77.0625 4.109375 -76.035156 4.109375 -74.625 C 4.496094 -74.496094 4.878906 -73.851562 5.523438 -72.695312 C 6.035156 -71.667969 6.679688 -71.15625 7.578125 -71.15625 C 7.835938 -70.128906 8.605469 -68.714844 10.019531 -66.917969 C 11.429688 -64.988281 12.332031 -63.835938 12.585938 -63.320312 L 14.640625 -63.320312 C 16.695312 -60.625 19.523438 -59.210938 23.246094 -59.210938 C 26.972656 -59.082031 29.925781 -59.980469 32.367188 -61.90625 C 33.265625 -61.777344 36.734375 -62.933594 42.898438 -65.503906 C 45.339844 -65.503906 46.496094 -64.734375 46.496094 -63.320312 C 46.367188 -63.0625 46.109375 -62.164062 45.980469 -60.625 C 45.851562 -59.082031 45.46875 -58.054688 44.953125 -57.667969 L 45.722656 -57.027344 C 45.082031 -55.871094 44.566406 -53.6875 44.441406 -50.734375 C 44.3125 -47.90625 44.054688 -45.980469 43.667969 -44.953125 C 44.3125 -43.796875 44.441406 -42.128906 43.925781 -40.074219 C 43.539062 -37.890625 43.667969 -36.21875 44.3125 -35.0625 C 43.667969 -32.75 43.285156 -29.414062 43.285156 -25.175781 C 43.285156 -20.679688 42.898438 -17.46875 42.128906 -15.285156 C 42 -14.640625 42.128906 -13.613281 42.511719 -12.203125 C 42.898438 -10.789062 42.769531 -9.890625 42.128906 -9.632812 C 42.257812 -9.121094 42.640625 -7.0625 43.027344 -3.597656 C 43.667969 0 44.183594 2.570312 44.824219 4.238281 C 45.46875 6.164062 46.75 7.835938 48.550781 9.503906 Z M 48.550781 9.503906 "></path></g></g></g><g fill="#82c7ea" fill-opacity="1"><g transform="translate(128.678072, 183.478711)"><g><path d="M 40.585938 -8.734375 C 39.046875 -8.21875 36.863281 -7.964844 34.164062 -7.964844 C 31.46875 -7.964844 29.285156 -7.707031 27.742188 -7.191406 L 22.734375 -9.632812 C 19.78125 -11.046875 17.597656 -11.816406 16.441406 -12.203125 C 16.054688 -12.84375 15.285156 -13.742188 14 -15.027344 C 13.359375 -15.667969 12.585938 -16.570312 11.558594 -17.851562 C 11.046875 -18.625 10.273438 -20.421875 9.246094 -23.246094 C 8.089844 -26.203125 6.9375 -28.128906 5.90625 -29.15625 C 5.90625 -29.414062 6.035156 -29.667969 6.292969 -29.796875 C 6.550781 -30.054688 6.679688 -30.3125 6.679688 -30.570312 C 5.90625 -31.46875 5.265625 -33.007812 4.878906 -35.320312 C 4.496094 -37.246094 4.238281 -38.789062 3.851562 -39.816406 C 3.339844 -44.054688 3.980469 -49.449219 5.90625 -56 L 10.148438 -58.054688 C 14.128906 -64.734375 23.117188 -69.742188 36.863281 -73.082031 L 39.046875 -73.722656 C 39.046875 -73.46875 39.175781 -73.210938 39.429688 -72.953125 C 39.6875 -72.695312 39.816406 -72.441406 39.816406 -72.183594 C 40.328125 -72.695312 41.230469 -72.953125 42.640625 -72.953125 C 43.285156 -72.824219 44.441406 -72.183594 45.851562 -71.15625 C 47.523438 -70.257812 48.808594 -69.871094 49.707031 -70.128906 C 50.21875 -68.972656 51.503906 -67.300781 53.558594 -65.375 C 55.742188 -63.191406 57.15625 -61.652344 57.539062 -60.878906 C 57.539062 -60.238281 58.183594 -58.183594 59.339844 -54.714844 C 60.496094 -51.375 60.878906 -48.679688 60.367188 -46.75 C 60.367188 -46.496094 60.496094 -46.238281 60.625 -46.109375 C 60.878906 -45.851562 61.007812 -45.597656 61.007812 -45.46875 C 60.75 -45.082031 60.238281 -43.925781 59.59375 -42.128906 C 58.953125 -40.457031 58.3125 -39.175781 57.539062 -38.273438 C 57.027344 -37.761719 56.382812 -37.246094 55.742188 -36.863281 C 54.84375 -36.21875 54.203125 -35.449219 53.945312 -34.808594 C 51.890625 -33.78125 50.734375 -32.878906 50.347656 -31.980469 C 50.21875 -31.851562 48.164062 -31.339844 44.441406 -30.183594 C 43.414062 -29.925781 42.128906 -29.539062 40.585938 -29.15625 L 38.402344 -28.511719 C 37.761719 -28.257812 36.992188 -28.386719 35.964844 -28.769531 C 34.933594 -29.15625 34.035156 -29.027344 33.394531 -28.511719 C 32.496094 -28.257812 30.953125 -28.386719 28.511719 -28.769531 C 26.203125 -29.15625 24.53125 -29.027344 23.632812 -28.511719 C 24.148438 -27.101562 25.6875 -26.203125 28.257812 -25.816406 C 30.953125 -25.429688 32.496094 -25.046875 32.75 -24.917969 C 32.75 -25.175781 32.878906 -25.429688 33.136719 -25.6875 C 33.265625 -25.816406 33.394531 -25.945312 33.394531 -26.328125 C 33.394531 -26.074219 33.523438 -25.816406 33.78125 -25.6875 C 34.035156 -25.429688 34.164062 -25.175781 34.164062 -24.917969 C 35.0625 -24.53125 36.863281 -24.148438 39.558594 -23.761719 C 42 -23.503906 44.054688 -22.992188 45.46875 -22.089844 L 56 -22.089844 C 57.414062 -20.679688 58.183594 -19.78125 58.183594 -19.265625 L 58.183594 -17.851562 C 56.769531 -15.027344 54.074219 -13.613281 50.347656 -13.613281 C 46.625 -11.6875 44.054688 -10.789062 42.640625 -10.789062 Z M 18.625 -46.109375 C 18.238281 -45.722656 17.980469 -44.054688 17.980469 -41.101562 C 20.679688 -42 24.019531 -43.539062 27.742188 -45.46875 C 32.238281 -47.652344 35.578125 -48.933594 37.761719 -49.578125 C 40.84375 -52.789062 42.257812 -55.230469 41.871094 -56.769531 C 41.355469 -57.414062 40.328125 -57.925781 38.789062 -58.054688 C 37.375 -58.183594 36.21875 -58.441406 35.578125 -58.824219 C 29.15625 -58.824219 23.503906 -56 18.625 -50.347656 C 18.625 -49.0625 18.367188 -47.90625 17.980469 -46.75 Z M 18.625 -46.109375 "></path></g></g></g><g fill="#2399cf" fill-opacity="1"><g transform="translate(194.68468, 183.478711)"><g><path d="M 23.632812 -7.835938 C 33.523438 -4.238281 42 -4.753906 49.0625 -9.246094 C 50.21875 -10.019531 53.046875 -12.585938 57.539062 -16.953125 C 58.183594 -17.210938 59.082031 -17.722656 59.980469 -18.496094 C 61.265625 -19.265625 62.035156 -19.652344 62.421875 -19.78125 C 62.808594 -20.808594 63.578125 -21.578125 64.605469 -21.964844 L 66.789062 -23.375 L 66.789062 -25.429688 C 68.972656 -26.203125 70.257812 -27.613281 70.898438 -29.796875 C 70.769531 -30.183594 69.742188 -30.441406 68.074219 -30.441406 C 55.355469 -23.632812 47.652344 -19.78125 44.824219 -19.136719 C 40.585938 -18.625 34.679688 -20.292969 27.230469 -24.148438 C 27.230469 -24.402344 27.359375 -24.660156 27.484375 -24.789062 C 27.742188 -25.046875 27.871094 -25.300781 27.871094 -25.429688 C 27.871094 -24.53125 27.359375 -24.148438 26.457031 -24.148438 C 22.605469 -30.183594 22.089844 -35.964844 25.046875 -41.742188 C 26.203125 -42.128906 27.359375 -43.539062 28.511719 -45.980469 C 30.824219 -47.136719 33.652344 -48.035156 36.992188 -48.808594 C 38.019531 -48.550781 38.53125 -47.90625 38.53125 -46.75 C 39.429688 -47.007812 40.585938 -46.878906 42.128906 -46.238281 C 43.796875 -45.597656 44.824219 -45.210938 45.46875 -45.210938 C 47.007812 -43.539062 49.320312 -41.871094 52.402344 -40.457031 C 55.230469 -39.175781 57.15625 -38.144531 58.3125 -37.503906 L 61.777344 -37.503906 C 61.777344 -37.761719 61.90625 -38.019531 62.164062 -38.273438 C 62.292969 -38.402344 62.421875 -38.53125 62.421875 -38.917969 L 68.074219 -38.917969 C 69.101562 -39.816406 69.613281 -41.484375 69.613281 -43.925781 C 68.585938 -45.980469 64.605469 -48.808594 57.539062 -52.402344 C 57.15625 -53.300781 56 -54.328125 53.816406 -55.230469 C 51.890625 -56 50.734375 -57.15625 50.476562 -58.695312 C 37.890625 -66.789062 27.101562 -67.300781 17.980469 -60.109375 C 17.210938 -59.339844 16.570312 -58.695312 16.183594 -58.183594 C 15.285156 -57.027344 14.511719 -56.382812 14.128906 -56 C 13.613281 -55.355469 12.972656 -54.84375 12.332031 -54.457031 C 10.273438 -50.476562 8.605469 -47.90625 7.449219 -46.75 C 5.007812 -38.53125 4.109375 -33.523438 4.625 -31.851562 C 4.625 -30.824219 4.367188 -30.183594 3.851562 -29.796875 C 6.679688 -21.320312 9.503906 -15.667969 12.332031 -12.84375 C 14.128906 -11.6875 17.851562 -10.019531 23.632812 -7.835938 Z M 23.632812 -7.835938 "></path></g></g></g><g fill="#e46410" fill-opacity="1"><g transform="translate(274.044615, 183.478711)"><g><path d="M 25.558594 -83.355469 C 14.386719 -57.796875 8.347656 -35.191406 7.191406 -15.542969 C 6.679688 -15.15625 6.421875 -14.511719 6.421875 -13.484375 C 7.835938 -7.707031 11.558594 -3.210938 17.722656 0 C 20.164062 0 21.578125 -0.515625 22.089844 -1.414062 C 22.21875 -1.414062 22.476562 -1.285156 22.734375 -1.027344 C 23.117188 -0.898438 23.246094 -0.769531 23.375 -0.769531 C 25.300781 -3.210938 26.203125 -6.421875 26.203125 -10.660156 C 26.585938 -11.046875 26.84375 -11.429688 26.972656 -12.074219 C 27.230469 -12.714844 27.484375 -13.230469 27.742188 -13.484375 L 26.972656 -14.128906 C 27.613281 -15.542969 28.640625 -18.109375 29.796875 -21.578125 C 30.953125 -25.046875 31.980469 -27.613281 32.625 -29.027344 C 32.878906 -29.027344 33.136719 -28.898438 33.394531 -28.640625 C 33.523438 -28.386719 33.78125 -28.257812 34.035156 -28.257812 C 40.585938 -34.808594 47.007812 -37.246094 53.171875 -35.320312 C 53.171875 -30.3125 52.019531 -24.917969 49.578125 -19.136719 C 50.476562 -18.625 50.605469 -17.46875 50.089844 -15.542969 C 49.578125 -13.871094 49.449219 -12.714844 49.578125 -12.074219 C 50.476562 -11.046875 50.476562 -10.148438 49.578125 -9.246094 C 52.273438 -2.183594 55.742188 2.824219 60.109375 5.652344 C 64.605469 7.707031 70.257812 5.394531 77.0625 -1.414062 C 77.191406 -1.542969 77.707031 -2.3125 78.476562 -3.597656 C 79.117188 -4.753906 79.761719 -5.394531 80.660156 -5.652344 C 80.53125 -6.679688 80.660156 -8.476562 81.171875 -11.046875 C 81.6875 -13.742188 81.558594 -15.414062 80.660156 -16.3125 C 79.761719 -16.3125 75.777344 -17.46875 68.585938 -19.78125 C 68.972656 -20.679688 69.484375 -22.21875 70 -24.660156 C 70.640625 -26.972656 71.285156 -28.898438 72.183594 -30.441406 C 71.667969 -31.339844 71.410156 -33.90625 71.410156 -38.144531 L 68.972656 -43.027344 L 66.019531 -48.550781 C 64.988281 -50.089844 63.835938 -51.375 62.679688 -52.53125 C 61.265625 -54.203125 59.722656 -55.230469 58.054688 -55.871094 C 58.054688 -56 57.925781 -56.257812 57.667969 -56.511719 C 57.414062 -56.769531 57.285156 -57.027344 57.285156 -57.285156 L 55.230469 -57.285156 C 53.816406 -58.183594 50.605469 -58.695312 45.339844 -58.695312 C 45.46875 -58.953125 45.722656 -59.59375 46.238281 -60.625 C 46.75 -61.652344 47.136719 -62.550781 47.523438 -63.320312 C 47.652344 -63.707031 48.035156 -64.476562 48.679688 -65.761719 C 49.320312 -67.171875 49.707031 -68.199219 49.960938 -68.84375 C 50.605469 -70.257812 51.246094 -71.796875 51.632812 -73.46875 C 54.203125 -75.007812 55.871094 -77.835938 56.640625 -81.945312 C 55.484375 -91.578125 52.917969 -96.714844 48.808594 -97.484375 C 49.191406 -98.253906 48.933594 -98.898438 48.035156 -99.539062 C 47.136719 -100.183594 46.75 -100.695312 46.75 -101.082031 C 44.824219 -100.4375 43.027344 -100.4375 41.101562 -101.082031 C 38.660156 -100.4375 36.476562 -99.285156 34.679688 -97.613281 C 33.007812 -95.945312 31.082031 -93.246094 29.15625 -89.652344 L 27.484375 -86.566406 L 26.203125 -84.257812 C 25.816406 -83.742188 25.6875 -83.484375 25.558594 -83.355469 Z M 25.558594 -83.355469 "></path></g></g></g><g fill="#b6097b" fill-opacity="1"><g transform="translate(57.19385, 306.764423)"><g><path d="M 38.402344 -1.15625 C 38.019531 -1.15625 37.246094 -0.898438 35.964844 -0.515625 C 28.257812 -2.953125 24.273438 -6.550781 23.890625 -11.175781 C 24.402344 -11.558594 24.148438 -12.457031 22.992188 -14.128906 C 22.347656 -15.027344 22.089844 -15.796875 22.089844 -16.441406 C 22.476562 -16.441406 22.863281 -16.824219 23.246094 -17.722656 C 23.761719 -18.496094 24.148438 -18.878906 24.53125 -18.878906 C 24.402344 -20.292969 25.300781 -21.964844 27.230469 -23.632812 C 29.027344 -25.429688 31.722656 -27.359375 35.320312 -29.285156 L 46.75 -35.191406 C 46.75 -39.945312 46.238281 -42.769531 45.082031 -43.667969 C 43.414062 -44.824219 41.484375 -44.441406 39.558594 -42.511719 L 34.808594 -42.511719 C 34.164062 -42.898438 32.109375 -43.027344 28.769531 -43.027344 C 28.128906 -43.925781 26.714844 -44.695312 24.53125 -45.46875 C 22.605469 -46.238281 21.320312 -47.007812 20.9375 -47.78125 C 20.9375 -49.449219 20.550781 -50.347656 19.652344 -50.734375 L 19.652344 -54.328125 C 20.035156 -54.714844 20.550781 -55.613281 21.191406 -57.285156 C 21.964844 -59.210938 22.605469 -60.496094 22.992188 -61.136719 C 23.632812 -62.164062 24.53125 -62.808594 25.6875 -63.191406 C 32.625 -65.375 37.890625 -66.019531 41.355469 -64.988281 C 43.027344 -64.988281 44.054688 -65.117188 44.441406 -65.503906 C 44.441406 -70.511719 43.796875 -75.265625 42.640625 -79.761719 C 40.84375 -79.761719 38.019531 -78.988281 34.164062 -77.320312 C 32.238281 -76.550781 29.285156 -75.007812 25.429688 -72.566406 C 21.449219 -70.257812 18.367188 -68.714844 16.054688 -67.945312 C 15.796875 -68.199219 15.15625 -68.457031 14.257812 -68.84375 L 11.816406 -69.355469 C 11.558594 -69.355469 11.300781 -69.355469 11.046875 -69.355469 C 10.660156 -69.484375 10.402344 -69.484375 10.273438 -69.613281 L 10.019531 -69.613281 C 9.246094 -70.511719 8.21875 -70.898438 7.0625 -70.898438 C 5.652344 -70.257812 3.980469 -71.15625 2.183594 -73.851562 L 2.824219 -74.109375 L 3.339844 -74.367188 C 4.238281 -77.578125 5.523438 -80.402344 7.0625 -82.714844 C 7.964844 -82.714844 8.476562 -82.84375 8.863281 -83.226562 C 8.863281 -83.355469 9.246094 -83.871094 10.019531 -84.769531 C 10.660156 -85.410156 11.046875 -85.796875 11.175781 -86.183594 C 14.511719 -92.089844 19.136719 -94.660156 25.175781 -93.890625 C 27.359375 -94.273438 29.796875 -95.042969 32.625 -96.199219 C 35.578125 -97.355469 37.503906 -98 38.402344 -98 L 38.402344 -99.15625 L 40.203125 -99.15625 C 44.695312 -105.449219 48.679688 -108.660156 52.273438 -108.660156 C 54.84375 -107.890625 57.667969 -104.933594 60.75 -99.796875 C 60.878906 -99.667969 61.523438 -99.285156 62.808594 -98.640625 C 63.835938 -98.253906 64.605469 -97.613281 64.988281 -96.84375 L 65.503906 -97.101562 L 66.144531 -97.484375 L 73.59375 -96.585938 C 73.082031 -96.199219 73.210938 -95.300781 73.851562 -93.632812 C 74.496094 -91.960938 74.625 -90.804688 74.238281 -90.035156 C 74.625 -89.007812 74.496094 -88.109375 73.722656 -87.339844 C 72.695312 -86.183594 70.382812 -85.667969 66.789062 -85.667969 C 64.734375 -85.667969 63.320312 -84.640625 62.550781 -82.714844 C 62.550781 -78.734375 62.933594 -76.164062 63.707031 -75.007812 C 63.320312 -74.625 63.191406 -74.367188 63.449219 -74.367188 C 63.578125 -74.367188 63.707031 -72.441406 63.707031 -68.457031 C 64.605469 -67.300781 66.53125 -66.019531 69.230469 -64.605469 C 71.796875 -63.449219 73.851562 -61.90625 75.523438 -59.980469 C 76.933594 -58.183594 77.0625 -56.128906 75.777344 -53.6875 L 76.421875 -53.171875 C 75.652344 -50.476562 74.238281 -48.421875 72.183594 -47.265625 C 71.796875 -47.652344 71.15625 -47.78125 70.128906 -47.78125 C 69.101562 -47.78125 68.328125 -48.035156 67.945312 -48.421875 L 64.605469 -48.679688 L 64.863281 -45.597656 L 64.347656 -37.761719 C 70.382812 -38.144531 75.652344 -37.761719 80.015625 -36.605469 C 80.144531 -36.476562 81.945312 -35.707031 85.539062 -34.164062 L 85.796875 -33.652344 L 86.054688 -33.007812 C 88.621094 -31.851562 90.035156 -31.210938 90.292969 -31.210938 L 92.089844 -23.632812 C 91.191406 -23.890625 90.292969 -23.890625 89.394531 -23.632812 C 88.109375 -22.992188 87.46875 -22.605469 87.339844 -22.347656 C 87.339844 -21.191406 87.082031 -20.421875 86.695312 -20.035156 L 87.339844 -19.394531 C 86.953125 -19.007812 86.3125 -18.753906 85.15625 -18.625 C 83.871094 -18.367188 83.226562 -18.238281 83.101562 -18.238281 C 81.171875 -19.652344 79.632812 -20.550781 78.605469 -20.9375 C 76.804688 -21.707031 74.496094 -22.089844 71.796875 -22.21875 L 64.347656 -21.835938 C 63.960938 -20.9375 63.320312 -19.007812 62.550781 -16.183594 C 61.394531 -11.945312 60.367188 -8.992188 59.46875 -7.578125 L 56.769531 -5.523438 L 54.074219 -3.46875 L 54.074219 -2.3125 C 48.421875 -1.15625 45.210938 -0.769531 44.441406 -1.15625 L 43.796875 -0.515625 C 43.414062 -0.898438 42.386719 -1.15625 40.84375 -1.15625 C 40.714844 -0.769531 39.816406 -0.769531 38.402344 -1.15625 Z M 38.789062 -12.585938 C 39.945312 -11.945312 42.511719 -11.6875 46.238281 -11.6875 C 46.238281 -12.074219 46.496094 -13.484375 46.878906 -16.054688 C 47.265625 -18.367188 47.136719 -19.78125 46.238281 -20.421875 C 42.769531 -20.421875 38.273438 -19.265625 32.625 -16.824219 C 32.625 -15.796875 32.878906 -15.285156 33.265625 -15.15625 Z M 38.789062 -12.585938 "></path></g></g></g><g fill="#98b50b" fill-opacity="1"><g transform="translate(140.249216, 306.764423)"><g><path d="M 34.933594 -18.238281 C 36.605469 -15.15625 39.300781 -12.972656 42.898438 -11.558594 C 46.878906 -9.890625 51.117188 -8.347656 55.484375 -6.9375 L 64.476562 -4.109375 C 64.863281 -3.980469 65.117188 -3.980469 65.117188 -4.367188 C 65.117188 -4.753906 65.375 -4.878906 65.761719 -4.753906 C 67.429688 -4.367188 74.109375 -4.753906 85.667969 -6.035156 C 87.46875 -7.835938 88.496094 -9.761719 88.878906 -11.816406 L 88.878906 -15.667969 L 86.3125 -20.164062 C 86.183594 -20.421875 85.285156 -20.9375 83.742188 -21.835938 L 80.53125 -23.375 L 75.777344 -23.375 C 73.980469 -23.375 72.3125 -23.117188 70.898438 -22.734375 C 67.558594 -23.632812 65.246094 -24.019531 63.835938 -24.019531 L 59.339844 -26.203125 L 54.203125 -28.511719 C 48.035156 -31.210938 47.007812 -36.992188 50.992188 -45.851562 C 51.117188 -46.238281 51.761719 -46.496094 52.917969 -46.496094 C 52.917969 -47.523438 53.171875 -48.164062 53.558594 -48.421875 C 54.84375 -49.320312 55.871094 -50.476562 56.769531 -51.632812 C 57.925781 -53.171875 59.082031 -54.203125 59.980469 -54.84375 L 60.625 -56.128906 L 61.265625 -57.414062 C 67.300781 -60.878906 71.15625 -62.550781 72.824219 -62.550781 C 74.496094 -64.21875 75.394531 -65.503906 75.394531 -66.402344 C 76.292969 -67.300781 77.578125 -67.429688 79.246094 -67.046875 C 79.761719 -67.558594 80.402344 -67.945312 81.171875 -68.328125 C 81.945312 -68.714844 82.585938 -69.101562 83.101562 -69.613281 C 83.101562 -70.640625 83.484375 -72.054688 84.382812 -73.722656 C 85.285156 -75.652344 85.285156 -77.0625 84.382812 -77.960938 L 84.769531 -78.605469 L 85.027344 -79.246094 C 84.128906 -79.632812 83.613281 -80.402344 83.484375 -81.816406 C 83.226562 -83.101562 83.355469 -84 83.742188 -84.382812 L 81.816406 -86.3125 C 81.558594 -86.695312 80.917969 -87.082031 79.890625 -87.59375 C 78.734375 -87.59375 77.191406 -87.210938 75.007812 -86.566406 C 74.367188 -86.4375 72.566406 -85.925781 69.613281 -85.027344 C 68.457031 -84.640625 66.660156 -83.871094 64.476562 -82.714844 L 59.980469 -80.53125 C 58.695312 -79.890625 56.769531 -78.734375 54.203125 -77.0625 C 46.625 -71.925781 42.769531 -69.230469 42.640625 -68.972656 C 38.660156 -73.46875 33.394531 -77.960938 26.714844 -82.457031 C 16.441406 -89.523438 10.53125 -91.320312 8.992188 -87.851562 C 8.347656 -86.824219 7.707031 -86.3125 7.320312 -86.3125 L 7.964844 -85.667969 C 6.035156 -79.246094 4.878906 -75.652344 4.753906 -74.75 C 6.035156 -70.769531 9.632812 -66.273438 15.667969 -61.265625 L 16.953125 -61.265625 C 16.953125 -59.980469 17.980469 -59.339844 20.164062 -59.339844 C 20.164062 -59.210938 20.808594 -58.566406 22.089844 -57.414062 C 23.117188 -56.511719 23.761719 -55.871094 24.019531 -55.484375 C 25.429688 -53.300781 27.742188 -52.273438 31.082031 -52.273438 L 31.339844 -51.632812 L 31.722656 -50.992188 C 29.15625 -44.566406 27.871094 -39.175781 27.871094 -34.933594 L 28.257812 -33.90625 C 28.386719 -33.78125 28.511719 -33.523438 28.769531 -33.136719 C 28.898438 -32.75 29.027344 -32.496094 29.15625 -32.367188 C 29.414062 -31.980469 29.285156 -31.722656 28.769531 -31.722656 C 28.386719 -31.722656 28.386719 -31.46875 28.511719 -31.082031 C 31.46875 -23.503906 33.523438 -19.136719 34.933594 -18.238281 Z M 34.933594 -18.238281 "></path></g></g></g><g fill="#efa612" fill-opacity="1"><g transform="translate(220.867169, 306.764423)"><g><path d="M 56.382812 -11.558594 C 55.484375 -11.558594 54.074219 -12.714844 51.890625 -15.027344 C 50.605469 -16.3125 49.320312 -17.980469 47.90625 -20.035156 C 46.75 -21.835938 45.597656 -23.246094 44.566406 -24.273438 L 42.640625 -24.273438 C 41.230469 -23.375 40.203125 -22.089844 39.429688 -20.679688 C 38.144531 -20.679688 35.449219 -20.164062 31.46875 -19.265625 C 31.082031 -20.292969 29.796875 -20.550781 27.613281 -20.035156 C 25.429688 -19.523438 24.148438 -19.265625 23.632812 -19.265625 C 19.652344 -19.265625 15.15625 -21.578125 9.890625 -26.328125 C 9.890625 -27.230469 9.632812 -27.871094 9.246094 -28.511719 C 7.0625 -30.695312 5.136719 -36.089844 3.339844 -44.695312 C 3.210938 -45.597656 3.597656 -48.164062 4.625 -52.53125 C 5.523438 -56.257812 5.78125 -59.082031 5.265625 -61.007812 C 5.78125 -61.007812 6.679688 -61.652344 7.964844 -63.0625 C 8.347656 -63.707031 8.605469 -64.347656 8.605469 -65.246094 C 13.230469 -68.714844 15.667969 -70.640625 15.796875 -70.898438 C 17.46875 -72.695312 19.007812 -74.625 20.421875 -76.550781 C 20.808594 -77.0625 21.964844 -78.21875 24.019531 -80.015625 C 22.734375 -85.796875 23.375 -91.449219 26.074219 -96.972656 C 31.210938 -103.136719 35.191406 -101.210938 38.019531 -91.320312 L 39.300781 -86.3125 L 54.84375 -90.292969 C 59.082031 -91.320312 62.035156 -91.449219 63.578125 -90.679688 L 64.21875 -90.292969 L 64.988281 -89.90625 L 65.632812 -90.679688 L 80.015625 -86.4375 C 80.660156 -87.210938 81.171875 -87.722656 81.816406 -88.109375 C 82.972656 -89.007812 83.484375 -89.777344 83.226562 -90.292969 L 85.285156 -91.320312 C 89.136719 -95.171875 91.960938 -96.84375 93.761719 -96.328125 C 94.917969 -95.945312 96.457031 -94.660156 98.382812 -92.734375 C 98.640625 -92.476562 99.027344 -91.449219 99.667969 -89.652344 C 100.054688 -87.980469 100.695312 -86.695312 101.59375 -85.667969 C 101.59375 -84.640625 99.796875 -82.972656 96.328125 -80.789062 C 95.429688 -80.144531 94.144531 -78.476562 92.476562 -75.777344 C 98.640625 -71.539062 102.109375 -65.890625 102.878906 -58.824219 C 102.878906 -58.3125 103.523438 -55.742188 104.933594 -51.117188 C 104.550781 -49.960938 104.164062 -47.265625 103.523438 -43.285156 C 103.136719 -39.816406 102.621094 -37.375 102.238281 -36.21875 C 100.953125 -35.835938 98.128906 -33.007812 93.761719 -27.742188 C 90.804688 -26.328125 87.082031 -27.613281 82.585938 -31.339844 L 87.210938 -44.695312 L 85.925781 -53.171875 L 86.566406 -56 C 86.183594 -56 85.925781 -56.511719 85.925781 -57.414062 C 85.925781 -58.3125 85.667969 -58.824219 85.285156 -58.824219 C 85.539062 -59.59375 85.285156 -60.496094 84.640625 -61.652344 C 83.226562 -63.707031 82.457031 -64.863281 82.199219 -65.117188 C 83.101562 -65.503906 82.972656 -66.019531 81.816406 -66.53125 C 80.660156 -67.046875 80.015625 -67.558594 80.015625 -68.074219 C 66.273438 -59.722656 58.183594 -52.019531 55.742188 -44.695312 L 55.101562 -43.027344 L 54.457031 -41.230469 C 54.457031 -40.585938 54.714844 -38.917969 55.101562 -36.21875 C 56 -34.808594 56.769531 -32.878906 57.414062 -30.570312 C 58.054688 -28.128906 58.824219 -26.328125 59.722656 -24.917969 C 63.320312 -20.292969 64.605469 -17.46875 63.578125 -16.441406 L 63.578125 -14.386719 C 62.679688 -14.386719 61.394531 -13.871094 59.722656 -12.972656 C 57.796875 -12.074219 56.769531 -11.558594 56.382812 -11.558594 Z M 42.257812 -70.511719 C 41.101562 -69.871094 41.871094 -68.074219 44.441406 -64.988281 C 44.824219 -64.476562 45.339844 -62.679688 45.980469 -59.46875 C 46.367188 -57.539062 47.007812 -56.257812 47.652344 -55.355469 C 49.0625 -56.257812 50.605469 -57.796875 52.402344 -60.109375 C 54.203125 -62.421875 55.871094 -64.089844 57.285156 -64.988281 C 57.925781 -66.789062 58.953125 -68.199219 60.496094 -69.101562 C 61.90625 -70.128906 62.933594 -71.027344 63.707031 -71.925781 C 55.871094 -74.75 48.808594 -74.238281 42.257812 -70.511719 Z M 25.558594 -30.695312 L 28.257812 -29.539062 L 30.3125 -30.695312 C 31.722656 -31.339844 33.265625 -33.265625 35.191406 -36.476562 C 33.90625 -47.136719 30.953125 -56.640625 26.457031 -64.988281 C 24.019531 -63.835938 21.191406 -60.75 17.980469 -56 C 16.695312 -54.585938 15.542969 -53.171875 14.640625 -51.761719 C 13.230469 -50.089844 12.714844 -48.550781 12.972656 -46.878906 C 12.972656 -42.640625 13.613281 -40.203125 14.898438 -39.300781 C 17.597656 -37.246094 19.394531 -35.835938 20.292969 -34.933594 C 22.476562 -32.75 24.148438 -31.339844 25.558594 -30.695312 Z M 25.558594 -30.695312 "></path></g></g></g></svg>