<?xml version="1.0" encoding="utf-8" standalone="yes"?><svg xmlns:cc="http://creativecommons.org/ns#" xmlns:dc="http://purl.org/dc/elements/1.1/" xmlns:inkscape="http://www.inkscape.org/namespaces/inkscape" xmlns:rdf="http://www.w3.org/1999/02/22-rdf-syntax-ns#" xmlns:sodipodi="http://sodipodi.sourceforge.net/DTD/sodipodi-0.dtd" xmlns:svg="http://www.w3.org/2000/svg" xmlns="http://www.w3.org/2000/svg" xmlns:xlink="http://www.w3.org/1999/xlink" version="1.2" baseProfile="tiny-ps" viewBox="0 0 225 225" xml:space="preserve"><title>TiRO</title><rect width="225" height="225" fill="white"></rect><path d="M38.9863 141V100.104H22.8583V90.6H66.7783V100.104H50.6503V141H38.9863ZM72.2621 141V102.264H83.4941V141H72.2621ZM77.8781 96.864C75.8141 96.864 74.1341 96.264 72.8381 95.064C71.5421 93.864 70.8941 92.376 70.8941 90.6C70.8941 88.824 71.5421 87.336 72.8381 86.136C74.1341 84.936 75.8141 84.336 77.8781 84.336C79.9421 84.336 81.6221 84.912 82.9181 86.064C84.2141 87.168 84.8621 88.608 84.8621 90.384C84.8621 92.256 84.2141 93.816 82.9181 95.064C81.6701 96.264 79.9901 96.864 77.8781 96.864ZM94.7104 141V90.6H116.526C121.038 90.6 124.926 91.344 128.19 92.832C131.454 94.272 133.974 96.36 135.75 99.096C137.526 101.832 138.414 105.096 138.414 108.888C138.414 112.632 137.526 115.872 135.75 118.608C133.974 121.296 131.454 123.36 128.19 124.8C124.926 126.24 121.038 126.96 116.526 126.96H101.19L106.374 121.848V141H94.7104ZM126.75 141L114.15 122.712H126.606L139.35 141H126.75ZM106.374 123.144L101.19 117.672H115.878C119.478 117.672 122.166 116.904 123.942 115.368C125.718 113.784 126.606 111.624 126.606 108.888C126.606 106.104 125.718 103.944 123.942 102.408C122.166 100.872 119.478 100.104 115.878 100.104H101.19L106.374 94.56V123.144ZM172.136 141.864C168.152 141.864 164.456 141.216 161.048 139.92C157.688 138.624 154.76 136.8 152.264 134.448C149.816 132.096 147.896 129.336 146.504 126.168C145.16 123 144.488 119.544 144.488 115.8C144.488 112.056 145.16 108.6 146.504 105.432C147.896 102.264 149.84 99.504 152.336 97.152C154.832 94.8 157.76 92.976 161.12 91.68C164.48 90.384 168.128 89.736 172.064 89.736C176.048 89.736 179.696 90.384 183.008 91.68C186.368 92.976 189.272 94.8 191.72 97.152C194.216 99.504 196.16 102.264 197.552 105.432C198.944 108.552 199.64 112.008 199.64 115.8C199.64 119.544 198.944 123.024 197.552 126.24C196.16 129.408 194.216 132.168 191.72 134.52C189.272 136.824 186.368 138.624 183.008 139.92C179.696 141.216 176.072 141.864 172.136 141.864ZM172.064 131.928C174.32 131.928 176.384 131.544 178.256 130.776C180.176 130.008 181.856 128.904 183.296 127.464C184.736 126.024 185.84 124.32 186.608 122.352C187.424 120.384 187.832 118.2 187.832 115.8C187.832 113.4 187.424 111.216 186.608 109.248C185.84 107.28 184.736 105.576 183.296 104.136C181.904 102.696 180.248 101.592 178.328 100.824C176.408 100.056 174.32 99.672 172.064 99.672C169.808 99.672 167.72 100.056 165.8 100.824C163.928 101.592 162.272 102.696 160.832 104.136C159.392 105.576 158.264 107.28 157.448 109.248C156.68 111.216 156.296 113.4 156.296 115.8C156.296 118.152 156.68 120.336 157.448 122.352C158.264 124.32 159.368 126.024 160.76 127.464C162.2 128.904 163.88 130.008 165.8 130.776C167.72 131.544 169.808 131.928 172.064 131.928Z" fill="black"></path></svg>