<svg width="99" height="29" viewBox="0 0 99 29" fill="none" xmlns="http://www.w3.org/2000/svg">
<path d="M93 15.5C93 22.9558 88.0751 29 82 29C75.9249 29 71 22.9558 71 15.5C71 8.04416 75.9249 2 82 2C88.0751 2 93 8.04416 93 15.5Z" fill="#11F7E7"/>
<path d="M93 15.5C93 22.9558 88.0751 29 82 29C75.9249 29 71 22.9558 71 15.5C71 8.04416 75.9249 2 82 2C88.0751 2 93 8.04416 93 15.5Z" stroke="black"/>
<path d="M8.96 28.5V5.78001H0V0.500014H24.4V5.78001H15.44V28.5H8.96Z" fill="black"/>
<path d="M27.4466 28.5L27.3009 9H33.6866V28.5H27.4466ZM30.5666 7.00002C29.4199 7.00002 28.5209 6.66669 27.8009 6.00002C27.0809 5.33336 26.8009 4.48669 26.8009 3.50003C26.8009 2.51336 27.0809 1.66669 27.8009 1.00003C28.5209 0.333357 29.4199 0 30.5666 0C31.7132 0 32.5809 0.360024 33.3009 1.00003C34.0209 1.61336 34.3009 2.51336 34.3009 3.50003C34.3009 4.54002 34.0866 5.30669 33.3666 6.00002C32.6732 6.66669 31.7399 7.00002 30.5666 7.00002Z" fill="black"/>
<path d="M39.9178 28.5V0.500014H52.0378C54.5445 0.500014 56.7045 0.913348 58.5178 1.74002C60.3311 2.54001 61.7311 3.70001 62.7178 5.22002C63.7045 6.74002 64.1978 8.55335 64.1978 10.66C64.1978 12.74 63.7045 14.54 62.7178 16.06C61.7311 17.5533 60.3311 18.7 58.5178 19.5C56.7045 20.3 54.5445 20.7 52.0378 20.7H43.5178L46.3978 17.86V28.5H39.9178ZM57.7178 28.5L50.7178 18.34H57.6378L64.7178 28.5H57.7178ZM46.3978 18.58L43.5178 15.54H51.6778C53.6778 15.54 55.1711 15.1133 56.1578 14.26C57.1445 13.38 57.6378 12.18 57.6378 10.66C57.6378 9.11335 57.1445 7.91335 56.1578 7.06002C55.1711 6.20668 53.6778 5.78001 51.6778 5.78001H43.5178L46.3978 2.70002V18.58Z" fill="black"/>
<path d="M82.9319 28.98C80.7185 28.98 78.6652 28.62 76.7719 27.9C74.9052 27.18 73.2785 26.1667 71.8919 24.86C70.5319 23.5534 69.4652 22.02 68.6919 20.26C67.9452 18.5 67.5719 16.58 67.5719 14.5C67.5719 12.42 67.9452 10.5 68.6919 8.74002C69.4652 6.98002 70.5452 5.44668 71.9319 4.14002C73.3185 2.83335 74.9452 1.82001 76.8119 1.10001C78.6785 0.380015 80.7052 0.0200159 82.8919 0.0200159C85.1052 0.0200159 87.1319 0.380015 88.9719 1.10001C90.8385 1.82001 92.4519 2.83335 93.8119 4.14002C95.1985 5.44668 96.2785 6.98002 97.0519 8.74002C97.8252 10.4733 98.2119 12.3934 98.2119 14.5C98.2119 16.58 97.8252 18.5133 97.0519 20.3C96.2785 22.06 95.1985 23.5934 93.8119 24.9C92.4519 26.18 90.8385 27.18 88.9719 27.9C87.1319 28.62 85.1185 28.98 82.9319 28.98ZM82.8919 23.46C84.1452 23.46 85.2919 23.2467 86.3319 22.82C87.3985 22.3934 88.3319 21.78 89.1319 20.98C89.9319 20.18 90.5452 19.2333 90.9719 18.14C91.4252 17.0467 91.6519 15.8334 91.6519 14.5C91.6519 13.1667 91.4252 11.9533 90.9719 10.86C90.5452 9.76668 89.9319 8.82001 89.1319 8.02001C88.3585 7.22001 87.4385 6.60668 86.3719 6.18001C85.3052 5.75335 84.1452 5.54002 82.8919 5.54002C81.6385 5.54002 80.4785 5.75335 79.4119 6.18001C78.3719 6.60668 77.4519 7.22001 76.6519 8.02001C75.8519 8.82001 75.2252 9.76668 74.7719 10.86C74.3452 11.9533 74.1319 13.1667 74.1319 14.5C74.1319 15.8067 74.3452 17.02 74.7719 18.14C75.2252 19.2333 75.8385 20.18 76.6119 20.98C77.4119 21.78 78.3452 22.3934 79.4119 22.82C80.4785 23.2467 81.6385 23.46 82.8919 23.46Z" fill="black"/>
</svg>
